<?xml version="1.0" standalone="no"?>
<!DOCTYPE svg PUBLIC "-//W3C//DTD SVG 20010904//EN"
 "http://www.w3.org/TR/2001/REC-SVG-20010904/DTD/svg10.dtd">
<svg version="1.0" xmlns="http://www.w3.org/2000/svg"
 width="640.000000pt" height="640.000000pt" viewBox="0 0 640.000000 640.000000"
 preserveAspectRatio="xMidYMid meet">

<g transform="translate(0.000000,640.000000) scale(0.100000,-0.100000)"
fill="#000000" stroke="none">
<path d="M0 3200 l0 -3200 3200 0 3200 0 0 3200 0 3200 -3200 0 -3200 0 0
-3200z m3069 2428 c-63 -16 -82 -47 -90 -141 -4 -53 -7 -68 -9 -42 -9 125 31
197 110 194 20 -1 18 -3 -11 -11z m101 -13 c17 -9 30 -18 30 -21 0 -2 -12 2
-27 9 -16 8 -35 17 -43 20 -10 4 -11 6 -2 6 7 1 26 -6 42 -14z m90 -70 c13
-14 21 -25 18 -25 -2 0 -15 11 -28 25 -13 14 -21 25 -18 25 2 0 15 -11 28 -25z
m-71 -40 c14 -15 13 -15 -20 1 -46 21 -82 13 -97 -21 -18 -38 -15 -48 8 -25
37 37 94 19 153 -51 33 -38 56 -93 44 -105 -3 -3 -15 15 -27 40 -43 91 -117
124 -163 75 -10 -11 -22 -17 -28 -14 -17 11 -9 72 13 100 18 24 26 27 61 22
22 -3 47 -13 56 -22z m125 -31 c3 -8 2 -12 -4 -9 -6 3 -10 10 -10 16 0 14 7
11 14 -7z m315 -5 c5 -17 39 -49 51 -49 6 0 15 11 20 24 7 19 14 23 32 18 57
-14 99 -92 79 -144 -8 -21 -15 -25 -36 -20 -15 2 -29 11 -32 18 -3 8 -10 14
-17 14 -12 0 -36 -45 -36 -67 0 -17 -83 -9 -89 9 -2 7 -17 24 -33 38 -18 15
-28 34 -28 52 0 15 -4 30 -10 33 -5 3 -10 15 -10 26 0 10 5 19 10 19 6 0 10 8
10 18 0 10 3 21 6 24 10 10 79 -1 83 -13z m-378 -26 c13 -16 12 -17 -3 -4 -10
7 -18 15 -18 17 0 8 8 3 21 -13z m-34 -71 c33 -44 42 -72 23 -72 -6 0 -15 12
-21 27 -6 16 -18 36 -26 45 -17 19 -63 25 -63 8 0 -5 -7 -10 -15 -10 -18 0
-20 21 -3 38 25 25 70 9 105 -36z m143 13 c0 -5 -5 -3 -10 5 -5 8 -10 20 -10
25 0 6 5 3 10 -5 5 -8 10 -19 10 -25z m-156 -80 c-4 -8 -13 -15 -20 -15 -19 0
-38 44 -30 67 7 16 10 15 31 -10 14 -15 22 -34 19 -42z m93 -32 c-3 -10 -5 -2
-5 17 0 19 2 27 5 18 2 -10 2 -26 0 -35z m-242 -19 c9 -15 12 -23 6 -20 -11 7
-35 46 -28 46 3 0 12 -12 22 -26z m332 -21 c-3 -10 -5 -2 -5 17 0 19 2 27 5
18 2 -10 2 -26 0 -35z m822 9 c45 -28 70 -56 59 -67 -3 -4 -26 8 -49 25 -27
19 -53 30 -69 28 -24 -3 -25 -6 -24 -68 1 -83 51 -190 89 -190 24 0 57 36 64
69 9 45 31 53 31 11 0 -62 -40 -110 -93 -110 -50 0 -127 156 -127 258 0 41 4
51 23 60 33 16 47 13 96 -16z m-1042 -2 c14 -11 22 -20 18 -20 -4 0 -18 9 -32
20 -14 11 -22 20 -18 20 4 0 18 -9 32 -20z m117 -5 c-7 -17 -46 -30 -66 -22
-7 3 -1 6 13 6 15 1 32 8 39 16 16 19 21 19 14 0z m93 -47 c-3 -8 -6 -5 -6 6
-1 11 2 17 5 13 3 -3 4 -12 1 -19z m177 -73 l105 -60 1 -92 c0 -51 -3 -93 -6
-93 -4 0 -55 28 -115 62 l-109 62 0 94 c0 54 4 92 9 90 6 -1 57 -30 115 -63z
m-195 27 c-7 -11 -24 -25 -36 -31 -28 -13 -92 -14 -111 -2 -7 4 11 6 42 3 50
-4 57 -2 83 25 32 33 40 35 22 5z m-54 -122 c716 -412 892 -515 914 -534 51
-46 52 -57 53 -508 0 -313 -3 -422 -12 -433 -7 -8 -27 -20 -45 -26 -25 -9 -34
-20 -41 -48 -10 -39 -72 -91 -84 -70 -9 13 -50 -9 -50 -28 0 -17 -21 -28 -29
-14 -9 14 -51 -14 -51 -33 0 -8 -111 -78 -247 -157 -237 -138 -250 -144 -303
-144 -43 0 -64 6 -96 27 -23 15 -144 86 -270 159 -126 73 -281 162 -344 199
-63 36 -180 104 -260 150 -80 46 -153 90 -162 98 -21 18 -24 84 -5 100 10 8
508 297 654 379 25 15 59 24 87 25 l46 1 -30 33 c-16 19 -32 44 -35 57 -7 28
-12 140 -14 284 -1 100 -3 112 -20 118 -11 3 -18 15 -18 31 0 20 3 23 21 18
19 -6 19 -5 -4 16 -20 17 -21 20 -6 15 20 -6 20 -6 0 16 l-19 22 25 -7 25 -7
-25 21 -25 21 25 -6 25 -6 -25 21 c-24 21 -24 21 -2 15 27 -8 30 11 2 20 -28
9 -25 28 3 20 20 -5 20 -5 -3 9 l-25 15 25 1 c22 1 23 2 8 11 -10 5 -18 14
-18 19 0 5 8 7 18 4 9 -2 7 1 -5 7 -13 7 -23 16 -23 21 0 12 14 10 28 -4 9 -9
12 1 13 48 2 98 4 111 19 129 18 22 50 34 70 27 8 -3 114 -62 235 -132z m876
105 l21 -35 43 30 c49 34 60 36 68 16 6 -14 -16 -38 -69 -74 l-32 -22 -36 44
c-35 43 -46 76 -26 76 6 0 20 -16 31 -35z m-995 -3 c-4 -3 -14 2 -24 12 -16
18 -16 18 6 6 13 -6 21 -14 18 -18z m573 -133 l71 -41 0 -84 c0 -46 -3 -84 -6
-84 -16 0 -136 74 -141 87 -8 20 -7 163 1 163 2 0 36 -18 75 -41z m299 -166
l92 -55 0 -89 c0 -49 -3 -89 -7 -89 -4 0 -71 37 -150 82 l-143 82 0 94 0 94
58 -32 c31 -18 99 -57 150 -87z m-1341 -295 c-3 -8 -6 -5 -6 6 -1 11 2 17 5
13 3 -3 4 -12 1 -19z m1813 -4 c0 -8 -4 -12 -10 -9 -5 3 -10 10 -10 16 0 5 5
9 10 9 6 0 10 -7 10 -16z m-1720 -38 c15 -19 10 -20 -25 -4 -14 6 -25 17 -25
25 0 16 29 4 50 -21z m1790 9 c26 -13 41 -35 25 -35 -14 0 -65 32 -65 40 0 13
6 13 40 -5z m-1833 -57 c-3 -8 -6 -5 -6 6 -1 11 2 17 5 13 3 -3 4 -12 1 -19z
m1752 -23 c53 -31 61 -40 61 -65 0 -21 8 -35 25 -46 23 -15 26 -23 23 -63 -3
-42 -5 -46 -28 -46 -14 1 -69 27 -123 59 -80 47 -102 65 -114 94 -20 48 -4 87
31 78 16 -4 26 -1 30 9 8 23 29 18 95 -20z m61 14 c0 -6 -4 -7 -10 -4 -5 3
-10 11 -10 16 0 6 5 7 10 4 6 -3 10 -11 10 -16z m120 1 c0 -5 -4 -10 -10 -10
-5 0 -10 5 -10 10 0 6 5 10 10 10 6 0 10 -4 10 -10z m-55 -26 c34 -22 31 -35
-5 -23 -16 6 -30 17 -30 25 0 18 5 18 35 -2z m99 1 c3 -8 1 -15 -4 -15 -6 0
-10 7 -10 15 0 8 2 15 4 15 2 0 6 -7 10 -15z m-1886 -13 c2 -7 -2 -10 -12 -6
-9 3 -16 11 -16 16 0 13 23 5 28 -10z m1862 -37 c0 -8 -4 -15 -10 -15 -5 0
-10 7 -10 15 0 8 5 15 10 15 6 0 10 -7 10 -15z m-95 -4 c3 -5 1 -12 -5 -16 -5
-3 -10 1 -10 9 0 18 6 21 15 7z m75 -52 c0 -6 -7 -8 -16 -5 -9 3 -18 6 -20 6
-2 0 -4 7 -4 15 0 13 4 14 20 5 11 -6 20 -16 20 -21z m-33 -51 c-3 -8 -6 -5
-6 6 -1 11 2 17 5 13 3 -3 4 -12 1 -19z m103 12 c0 -5 -4 -10 -10 -10 -5 0
-10 5 -10 10 0 6 5 10 10 10 6 0 10 -4 10 -10z m-50 -36 c0 -8 -4 -12 -10 -9
-5 3 -10 10 -10 16 0 5 5 9 10 9 6 0 10 -7 10 -16z m50 -24 c0 -5 -4 -10 -10
-10 -5 0 -10 5 -10 10 0 6 5 10 10 10 6 0 10 -4 10 -10z m30 -1615 c33 -17 45
-46 31 -74 -13 -24 -41 -33 -92 -33 -49 1 -77 16 -85 47 -15 59 76 96 146 60z
m-2400 -140 l0 -94 36 24 c90 61 207 54 247 -15 14 -23 17 -57 17 -194 l0
-166 -90 0 -90 0 0 183 c0 101 -3 186 -6 190 -10 10 -57 -12 -86 -41 l-28 -26
0 -153 0 -153 -90 0 -90 0 0 126 0 127 -62 -7 c-168 -17 -208 -19 -208 -8 0
26 47 37 157 37 l113 0 0 133 0 132 90 0 90 0 0 -95z m-732 -120 c-3 -189 -2
-194 20 -225 13 -17 21 -35 17 -38 -12 -12 -43 37 -60 93 -18 63 -28 66 -121
39 -56 -16 -72 -30 -175 -153 -65 -77 -118 -109 -155 -93 -25 12 -34 35 -9 26
39 -15 149 65 212 155 15 22 15 25 0 36 -24 18 -21 23 17 30 28 6 41 19 83 83
27 42 69 111 93 152 52 92 60 101 71 94 6 -3 8 -90 7 -199z m244 139 c3 -3
-26 -71 -64 -150 -39 -80 -73 -164 -76 -186 l-5 -41 54 7 c40 5 51 4 43 -4 -6
-6 -30 -14 -52 -17 -35 -5 -42 -2 -57 20 -24 37 -15 68 68 235 68 136 76 149
89 136z m1349 -65 c11 -5 29 -25 39 -42 18 -28 20 -51 20 -194 l0 -163 -90 0
-90 0 0 185 0 185 -25 0 c-13 0 -40 -14 -60 -31 l-35 -31 0 -154 0 -154 -90 0
-90 0 0 205 0 205 90 0 90 0 0 -31 0 -30 33 25 c58 44 152 56 208 25z m531 -1
c53 -16 94 -55 107 -104 6 -21 11 -96 11 -166 l0 -128 -89 0 c-49 0 -91 4 -93
10 -2 6 -21 3 -48 -6 -80 -28 -189 -2 -232 57 -10 13 -21 44 -24 69 -7 55 21
102 81 138 36 21 50 23 133 19 l92 -4 0 43 c0 23 -5 46 -12 50 -25 16 -138 6
-179 -15 -47 -25 -59 -26 -59 -6 0 19 51 45 109 55 55 10 148 5 203 -12z m669
1 c11 -5 29 -25 39 -42 18 -28 20 -51 20 -194 l0 -163 -90 0 -90 0 0 185 0
185 -25 0 c-13 0 -40 -14 -60 -31 l-35 -31 0 -154 0 -154 -90 0 -90 0 0 205 0
205 90 0 90 0 0 -31 0 -30 33 25 c58 44 152 56 208 25z m369 -194 l0 -205 -90
0 -90 0 0 205 0 205 90 0 90 0 0 -205z m-1980 -470 c0 -41 -12 -45 -28 -10 -9
19 -19 25 -43 25 -24 0 -30 -3 -25 -16 3 -9 6 -38 6 -65 0 -54 18 -67 38 -26
9 19 11 15 11 -28 0 -39 -2 -46 -10 -32 -5 9 -18 17 -27 17 -14 0 -17 -9 -15
-57 1 -31 4 -66 7 -78 5 -19 1 -22 -32 -23 l-37 -2 0 165 0 165 78 0 77 0 0
-35z m835 15 c0 -8 -6 -14 -12 -12 -7 1 -19 3 -25 5 -17 3 -12 -94 5 -105 9
-6 9 -10 -2 -17 -10 -6 -12 -30 -10 -92 l4 -84 -27 -2 -27 -1 0 82 c0 44 -2
88 -3 96 -5 33 15 110 34 130 22 24 63 24 63 0z m63 -78 c3 -31 4 -32 53 -32
47 0 49 -1 43 -24 -7 -31 14 -99 28 -90 12 8 1 -56 -13 -70 -11 -13 -11 -14
-40 79 -20 65 -29 81 -47 83 -21 3 -22 0 -22 -70 0 -41 5 -79 11 -85 13 -13
-23 -24 -42 -12 -16 9 -30 178 -17 194 4 5 8 22 8 38 0 42 34 33 38 -11z
m-811 -47 c26 -18 38 -70 29 -120 -12 -62 -74 -76 -113 -26 -20 26 -16 105 8
135 23 30 45 33 76 11z m123 0 c0 -19 9 -19 34 0 14 11 23 12 33 4 23 -20 15
-32 -17 -25 -26 5 -32 2 -40 -20 -13 -33 -13 -111 0 -119 19 -12 10 -22 -22
-23 l-33 -1 0 99 c0 97 1 100 23 100 13 0 22 -6 22 -15z m305 -1 c17 -18 16
-35 -4 -42 -7 -2 -15 5 -18 17 -7 27 -43 28 -43 2 0 -12 17 -32 40 -48 22 -15
43 -36 46 -47 9 -26 -28 -59 -66 -59 -34 0 -66 25 -56 42 12 19 36 12 36 -10
0 -28 44 -23 48 6 2 15 -8 27 -37 43 -53 30 -62 59 -27 89 32 27 58 29 81 7z
m152 -8 c23 -20 28 -32 28 -68 0 -58 -26 -98 -64 -98 -53 0 -84 66 -61 134 19
59 53 70 97 32z m412 -36 c8 -33 17 -60 22 -60 12 0 22 66 15 95 -6 22 -3 25
20 25 21 0 25 -3 19 -17 -13 -33 -34 -98 -45 -143 -13 -50 -18 -46 -46 39 -14
45 -19 51 -26 35 -5 -11 -5 -1 -2 26 4 25 8 48 11 53 11 18 20 3 32 -53z m215
40 c15 -15 24 -169 10 -174 -6 -2 -16 0 -23 7 -7 7 -17 7 -35 -1 -18 -8 -28
-7 -45 4 -38 27 -23 83 29 104 31 13 39 37 18 58 -18 18 -28 15 -28 -8 0 -11
-7 -20 -15 -20 -21 0 -19 27 3 40 19 11 71 5 86 -10z m110 5 c5 -14 8 -14 29
0 22 14 25 14 37 -1 12 -13 11 -17 0 -24 -9 -5 -20 -4 -28 2 -25 21 -34 -7
-30 -86 l3 -76 -30 0 -30 0 0 100 c0 96 1 100 21 100 12 0 25 -7 28 -15z m194
-2 c11 -10 23 -33 27 -50 7 -33 7 -33 -35 -33 -41 0 -41 -1 -38 -32 4 -39 30
-49 60 -22 19 18 20 18 7 -9 -7 -15 -19 -28 -28 -29 -66 -6 -91 18 -91 89 0
44 5 58 25 78 29 30 46 31 73 8z"/>
<path d="M3691 5373 c-1 -12 4 -25 9 -28 12 -7 12 2 0 30 -8 19 -9 19 -9 -2z"/>
<path d="M3022 5098 c-9 -9 -12 -117 -12 -424 0 -410 0 -411 23 -444 23 -34
27 -36 522 -323 143 -82 341 -197 439 -254 98 -56 184 -103 190 -103 34 0 36
20 36 431 0 335 -2 410 -14 421 -8 8 -15 23 -17 33 -3 12 -69 57 -189 127
-102 59 -207 121 -235 137 -241 141 -716 411 -723 411 -4 0 -13 -5 -20 -12z
m95 -84 c33 -22 51 -40 47 -47 -4 -7 -4 -9 0 -5 5 4 18 -2 29 -13 12 -11 29
-17 41 -14 12 3 15 2 8 -1 -9 -4 -5 -12 12 -25 13 -10 27 -19 30 -19 8 0 186
-111 186 -116 0 -5 -42 16 -205 105 -127 69 -169 87 -129 55 18 -15 18 -15 0
-10 -13 5 -17 2 -12 -9 6 -18 -25 -21 -55 -5 -16 9 -19 22 -19 75 0 36 3 65 6
65 4 0 31 -16 61 -36z m-16 -143 c13 -10 39 -26 57 -35 19 -10 32 -19 30 -22
-3 -2 -31 10 -64 27 -56 30 -57 30 -29 5 34 -29 28 -33 -15 -11 -18 10 -28 22
-27 35 2 25 17 25 48 1z m-3 -61 c17 -11 32 -22 32 -24 0 -7 -40 6 -46 15 -3
5 -10 9 -17 9 -13 0 87 -70 100 -70 10 -1 60 -39 51 -40 -4 0 -35 16 -70 36
-35 20 -70 39 -78 44 -14 7 -24 50 -11 50 3 0 21 -9 39 -20z m86 -29 c-2 -3
-12 3 -22 13 -16 17 -16 18 5 5 12 -7 20 -15 17 -18z m76 -6 c0 -8 -2 -15 -4
-15 -2 0 -6 7 -10 15 -3 8 -1 15 4 15 6 0 10 -7 10 -15z m-159 -31 c29 -23 31
-25 9 -19 -22 6 -20 4 9 -19 38 -28 48 -31 53 -16 2 6 11 4 23 -5 11 -9 14
-13 6 -9 -7 3 -16 2 -20 -4 -4 -7 -28 1 -66 21 -43 24 -59 38 -60 55 -2 28 3
28 46 -4z m95 11 c16 -8 22 -15 13 -15 -8 0 -24 7 -35 15 -25 19 -14 19 22 0z
m324 -11 c0 -2 -9 0 -20 6 -11 6 -20 13 -20 16 0 2 9 0 20 -6 11 -6 20 -13 20
-16z m-220 6 c0 -5 -4 -10 -10 -10 -5 0 -10 5 -10 10 0 6 5 10 10 10 6 0 10
-4 10 -10z m-40 -20 c0 -5 -2 -10 -4 -10 -3 0 -8 5 -11 10 -3 6 -1 10 4 10 6
0 11 -4 11 -10z m40 -25 c0 -8 -2 -15 -4 -15 -2 0 -6 7 -10 15 -3 8 -1 15 4
15 6 0 10 -7 10 -15z m-203 -21 c21 -19 23 -24 9 -19 -19 6 -19 5 -1 -15 12
-13 14 -20 5 -20 -20 0 6 -26 41 -40 16 -7 28 -15 25 -17 -2 -2 -24 5 -48 17
l-43 21 25 -21 c14 -12 41 -31 60 -43 30 -19 35 -29 38 -66 5 -68 -2 -77 -43
-51 -19 12 -47 23 -62 26 -15 3 -31 8 -34 12 -4 4 -9 47 -12 95 -6 81 -5 88
11 83 15 -5 15 -5 2 6 -17 14 -24 58 -10 58 5 0 22 -12 37 -26z m163 -4 c0 -5
-2 -10 -4 -10 -3 0 -8 5 -11 10 -3 6 -1 10 4 10 6 0 11 -4 11 -10z m160 0 c0
-5 -2 -10 -4 -10 -3 0 -8 5 -11 10 -3 6 -1 10 4 10 6 0 11 -4 11 -10z m-120
-20 c0 -5 -2 -10 -4 -10 -3 0 -8 5 -11 10 -3 6 -1 10 4 10 6 0 11 -4 11 -10z
m160 0 c0 -5 -4 -10 -10 -10 -5 0 -10 5 -10 10 0 6 5 10 10 10 6 0 10 -4 10
-10z m-299 -17 c13 -15 12 -15 -8 -4 -24 12 -29 21 -14 21 5 0 15 -7 22 -17z
m700 -86 c-10 -9 -11 -8 -5 6 3 10 9 15 12 12 3 -3 0 -11 -7 -18z m69 -23 c7
-18 15 -24 26 -20 9 3 12 2 9 -5 -4 -5 -1 -17 6 -25 13 -16 -41 11 -86 42 -24
17 -12 18 18 2 19 -10 20 -9 10 4 -7 8 -10 18 -6 21 10 11 13 9 23 -19z m-100
-34 c0 -5 -2 -10 -4 -10 -3 0 -8 5 -11 10 -3 6 -1 10 4 10 6 0 11 -4 11 -10z
m-4 -37 c26 -15 56 -34 68 -40 11 -7 20 -19 18 -25 -3 -10 -1 -10 8 -2 17 17
8 50 -13 46 -10 -2 -17 4 -17 13 0 18 1 19 36 0 29 -15 49 -11 24 5 -8 6 -10
10 -4 10 6 0 17 -7 24 -15 7 -8 9 -15 6 -15 -4 0 0 -7 9 -16 13 -13 20 -14 38
-5 l22 12 -22 -5 c-27 -5 -29 2 -6 19 11 8 13 14 5 19 -7 4 -12 2 -12 -3 0 -6
-4 -11 -9 -11 -5 0 -8 11 -8 25 0 14 1 25 2 25 5 0 137 -70 163 -87 22 -14 22
-15 22 -253 -1 -144 -5 -240 -11 -240 -5 0 -9 5 -9 10 0 6 -4 10 -9 10 -5 0
-7 -9 -4 -20 4 -14 0 -20 -12 -20 -11 0 -15 5 -10 19 3 11 -1 24 -11 32 -16
13 -16 12 -5 -9 11 -21 11 -23 -6 -20 -12 3 -17 11 -15 28 2 23 2 24 -11 6
-17 -23 -40 -12 -32 14 3 10 1 21 -4 25 -7 3 -8 0 -5 -9 4 -9 -1 -18 -10 -22
-10 -4 -16 -18 -16 -35 0 -38 -14 -37 -98 4 -37 18 -75 32 -84 29 -13 -2 -16
1 -12 11 4 10 -17 30 -66 63 -39 26 -80 59 -91 73 -10 14 -23 31 -28 37 -12
15 18 44 37 37 12 -4 12 -1 2 18 -20 36 -40 120 -40 165 0 125 83 167 196 97z
m45 14 c-1 -12 -15 -9 -19 4 -3 6 1 10 8 8 6 -3 11 -8 11 -12z m-272 -299 c1
-37 -11 -50 -24 -27 -4 6 -4 36 1 67 7 51 8 54 15 27 3 -16 7 -47 8 -67z m52
-105 c47 -25 49 -28 49 -69 0 -24 -4 -45 -8 -48 -4 -3 -29 9 -55 26 -44 29
-47 33 -47 74 0 24 3 44 6 44 4 0 28 -12 55 -27z m529 -189 c0 -8 -4 -12 -10
-9 -5 3 -10 13 -10 21 0 8 5 12 10 9 6 -3 10 -13 10 -21z"/>
<path d="M3071 4535 l1 -60 10 48 c8 35 7 52 -1 60 -8 8 -11 -5 -10 -48z"/>
<path d="M3750 4454 c0 -9 6 -14 14 -11 7 3 25 -2 39 -12 22 -14 24 -20 14
-30 -9 -11 -9 -14 1 -18 11 -4 18 -33 7 -33 -3 0 -16 7 -29 15 -20 14 -25 14
-35 1 -7 -8 -20 -12 -29 -9 -12 5 -10 -1 7 -20 13 -15 27 -24 32 -22 4 3 15
-3 25 -12 17 -17 18 -17 11 0 -4 10 -7 21 -7 23 0 2 -7 4 -15 4 -8 0 -15 7
-15 15 0 18 4 18 30 5 64 -32 65 -33 54 -20 -8 7 -9 24 -4 46 8 33 6 37 -32
65 -46 32 -68 37 -68 13z"/>
<path d="M3655 4397 c-10 -24 1 -101 19 -135 11 -19 15 -22 16 -9 0 20 11 22
27 6 9 -9 11 -2 9 26 -2 20 -9 41 -16 45 -7 4 -20 25 -30 46 -15 32 -19 36
-25 21z m55 -98 c0 -5 -4 -9 -10 -9 -5 0 -10 7 -10 16 0 8 5 12 10 9 6 -3 10
-10 10 -16z"/>
<path d="M3985 4391 c-6 -11 9 -23 19 -14 9 9 7 23 -3 23 -6 0 -12 -4 -16 -9z"/>
<path d="M3870 4370 c0 -5 5 -10 11 -10 5 0 7 5 4 10 -3 6 -8 10 -11 10 -2 0
-4 -4 -4 -10z"/>
<path d="M4150 3960 c0 -5 5 -10 11 -10 5 0 7 5 4 10 -3 6 -8 10 -11 10 -2 0
-4 -4 -4 -10z"/>
<path d="M3147 3959 c7 -7 15 -10 18 -7 3 3 -2 9 -12 12 -14 6 -15 5 -6 -5z"/>
<path d="M3056 3905 c10 -8 23 -15 28 -15 6 0 1 7 -10 15 -10 8 -23 15 -28 15
-6 0 -1 -7 10 -15z"/>
<path d="M2961 3846 c2 -2 15 -9 29 -15 24 -11 24 -11 6 3 -16 13 -49 24 -35
12z"/>
<path d="M3394 3816 c11 -9 27 -16 35 -15 14 0 14 1 1 6 -8 3 -24 10 -35 15
-20 9 -20 9 -1 -6z"/>
<path d="M3220 3816 c0 -3 9 -10 20 -16 11 -6 20 -8 20 -6 0 3 -9 10 -20 16
-11 6 -20 8 -20 6z"/>
<path d="M2847 3799 c7 -7 15 -10 18 -7 3 3 -2 9 -12 12 -14 6 -15 5 -6 -5z"/>
<path d="M3070 3785 c14 -8 30 -14 35 -14 6 0 -1 6 -15 14 -14 8 -29 14 -35
14 -5 0 1 -6 15 -14z"/>
<path d="M3281 3777 c28 -21 59 -36 59 -29 0 5 -11 14 -25 20 -24 11 -44 16
-34 9z"/>
<path d="M2728 3758 c5 -5 16 -8 23 -6 8 3 3 7 -10 11 -17 4 -21 3 -13 -5z"/>
<path d="M3140 3751 c0 -10 58 -36 65 -29 3 2 -11 12 -30 21 -19 9 -35 13 -35
8z"/>
<path d="M2990 3721 c0 -11 46 -34 58 -30 6 2 -5 12 -24 21 -19 10 -34 14 -34
9z"/>
<path d="M3395 3711 c32 -23 45 -26 45 -12 0 5 -8 11 -17 14 -10 2 -27 8 -38
12 -11 4 -7 -2 10 -14z"/>
<path d="M3564 3715 c11 -8 27 -15 35 -15 10 1 7 6 -9 15 -33 19 -50 18 -26 0z"/>
<path d="M3306 3695 c-11 -8 -15 -15 -9 -15 6 0 16 7 23 15 16 19 11 19 -14 0z"/>
<path d="M2904 3658 c10 -6 22 -6 26 -2 5 5 -3 10 -18 11 -22 1 -24 0 -8 -9z"/>
<path d="M3102 3655 c14 -15 21 -17 40 -7 l23 12 -23 -6 c-13 -3 -31 0 -40 7
-16 12 -16 12 0 -6z"/>
<path d="M3480 3663 c0 -1 9 -7 19 -12 13 -8 22 -7 29 2 8 9 3 12 -19 12 -16
0 -29 -1 -29 -2z"/>
<path d="M3328 3640 l34 -21 31 20 c18 12 28 21 22 21 -5 -1 -19 -7 -29 -15
-17 -13 -22 -13 -42 0 -13 8 -29 15 -36 15 -7 0 2 -9 20 -20z"/>
<path d="M2941 3636 c5 -5 132 -80 236 -140 l81 -47 34 21 c30 19 31 20 8 18
-14 -2 -28 -6 -31 -11 -6 -8 -54 16 -220 109 -82 45 -126 66 -108 50z"/>
<path d="M3740 3615 c14 -8 30 -14 35 -14 6 0 -1 6 -15 14 -14 8 -29 14 -35
14 -5 0 1 -6 15 -14z"/>
<path d="M3186 3605 c24 -19 45 -19 70 0 23 18 11 20 -16 3 -16 -10 -24 -10
-40 0 -27 17 -38 15 -14 -3z"/>
<path d="M3390 3605 c0 -2 14 -12 31 -21 23 -11 34 -13 42 -5 8 8 5 11 -10 11
-12 0 -25 5 -28 10 -6 10 -35 14 -35 5z"/>
<path d="M3485 3600 c-3 -5 -2 -10 4 -10 5 0 13 5 16 10 3 6 2 10 -4 10 -5 0
-13 -4 -16 -10z"/>
<path d="M3250 3574 c0 -11 34 -33 51 -34 9 0 27 9 40 20 l24 21 -31 -15 c-27
-13 -34 -13 -50 -1 -20 15 -34 19 -34 9z"/>
<path d="M3654 3561 c17 -11 34 -17 39 -14 5 3 -5 12 -23 19 -45 19 -50 17
-16 -5z"/>
<path d="M3480 3555 c0 -2 10 -10 23 -16 20 -11 21 -11 8 4 -13 16 -31 23 -31
12z"/>
<path d="M3564 3544 c-18 -14 -18 -15 4 -4 12 6 22 13 22 15 0 8 -5 6 -26 -11z"/>
<path d="M2728 3519 c-10 -5 -18 -14 -18 -19 0 -7 201 -130 277 -169 29 -15
84 8 61 26 -11 8 -282 163 -298 170 -3 1 -13 -2 -22 -8z"/>
<path d="M3340 3522 c0 -5 12 -14 26 -21 22 -10 31 -9 50 4 13 8 24 18 24 21
0 4 -12 -1 -26 -11 -23 -15 -27 -15 -50 0 -13 8 -24 12 -24 7z"/>
<path d="M3740 3515 c14 -8 30 -14 35 -14 6 0 -1 6 -15 14 -14 8 -29 14 -35
14 -5 0 1 -6 15 -14z"/>
<path d="M3588 3488 c27 -17 36 -18 45 -8 7 8 8 10 1 7 -6 -4 -20 0 -30 8 -10
8 -26 14 -34 15 -8 0 0 -10 18 -22z"/>
<path d="M3440 3460 c32 -25 42 -25 71 0 l24 21 -30 -15 c-26 -12 -33 -12 -50
0 -29 22 -43 16 -15 -6z"/>
<path d="M3334 3445 c-5 -11 -10 -13 -19 -5 -9 7 -15 8 -19 1 -6 -8 87 -71
104 -71 3 0 19 9 35 20 28 18 28 20 8 20 -13 0 -23 -4 -23 -9 0 -6 -16 -4 -37
3 -29 10 -38 19 -37 35 1 25 -4 27 -12 6z"/>
<path d="M3650 3455 c0 -2 14 -11 30 -20 17 -9 30 -12 30 -7 0 5 -11 14 -25
20 -28 13 -35 14 -35 7z"/>
<path d="M3594 3409 c-3 -6 -17 -9 -30 -6 -19 3 -22 2 -13 -9 8 -10 16 -11 29
-4 19 10 36 30 26 30 -3 0 -8 -5 -12 -11z"/>
<path d="M3740 3396 c0 -2 7 -7 16 -10 8 -3 12 -2 9 4 -6 10 -25 14 -25 6z"/>
<path d="M3600 3365 c0 -6 56 -35 67 -35 4 0 -5 9 -22 20 -29 19 -45 25 -45
15z"/>
<path d="M3430 3355 c0 -2 12 -11 28 -18 24 -13 30 -12 57 4 34 21 29 25 -10
7 -19 -9 -28 -9 -37 0 -12 12 -38 17 -38 7z"/>
<path d="M3510 3311 c0 -11 46 -34 58 -30 6 2 -5 12 -24 21 -19 10 -34 14 -34
9z"/>
<path d="M3691 3317 c2 -1 13 -9 24 -17 19 -14 19 -14 6 3 -7 9 -18 17 -24 17
-6 0 -8 -1 -6 -3z"/>
<path d="M3616 3245 c10 -8 23 -15 28 -15 6 0 1 7 -10 15 -10 8 -23 15 -28 15
-6 0 -1 -7 10 -15z"/>
<path d="M3740 4882 c0 -23 4 -42 9 -42 6 0 7 17 4 38 -8 51 -13 53 -13 4z"/>
<path d="M3710 4886 c0 -14 5 -26 10 -26 6 0 10 9 10 19 0 11 -4 23 -10 26 -6
4 -10 -5 -10 -19z"/>
<path d="M3691 4884 c0 -11 3 -14 6 -6 3 7 2 16 -1 19 -3 4 -6 -2 -5 -13z"/>
<path d="M3797 4848 c-3 -18 -1 -37 4 -42 5 -6 9 7 9 32 0 50 -6 54 -13 10z"/>
<path d="M3772 4845 c0 -16 2 -22 5 -12 2 9 2 23 0 30 -3 6 -5 -1 -5 -18z"/>
<path d="M3903 4815 c0 -22 2 -30 4 -17 2 12 2 30 0 40 -3 9 -5 -1 -4 -23z"/>
<path d="M4048 4730 c-3 -32 0 -44 14 -51 24 -13 34 11 22 53 -14 47 -31 46
-36 -2z"/>
<path d="M1575 2344 c-33 -58 -62 -111 -64 -116 -4 -11 73 -1 100 13 12 6 19
29 23 76 4 37 10 83 13 101 3 17 1 32 -3 32 -5 0 -36 -48 -69 -106z"/>
<path d="M3614 2256 c-3 -7 -3 -61 -2 -122 l3 -109 35 3 c19 1 45 9 57 18 21
13 23 22 23 104 0 49 -4 91 -9 95 -5 3 -31 9 -56 14 -34 6 -48 5 -51 -3z"/>
<path d="M2894 1606 c-10 -26 1 -139 14 -144 9 -3 12 17 12 77 0 49 -4 81 -10
81 -6 0 -13 -6 -16 -14z"/>
<path d="M3464 1606 c-10 -26 1 -139 14 -144 9 -3 12 17 12 77 0 49 -4 81 -10
81 -6 0 -13 -6 -16 -14z"/>
<path d="M4075 1537 c-13 -10 -16 -21 -11 -41 10 -42 40 -31 44 17 3 40 -4 45
-33 24z"/>
<path d="M4407 1613 c-4 -3 -7 -17 -7 -30 0 -16 6 -23 20 -23 16 0 20 7 20 30
0 28 -17 40 -33 23z"/>
</g>
</svg>
